<svg width="64" height="64" viewBox="0 0 64 64" fill="none" xmlns="http://www.w3.org/2000/svg">
<path d="M37 50.3333H34.7778C34.4776 50.3275 34.192 50.2028 33.9836 49.9865C33.7753 49.7703 33.6613 49.4802 33.6667 49.18V13.1511C33.6619 12.8513 33.7762 12.5618 33.9844 12.346C34.1927 12.1303 34.478 12.0058 34.7778 12H37M28.6667 32H33.6667M43.6667 12C43.6667 12.6566 43.796 13.3068 44.0473 13.9134C44.2985 14.52 44.6668 15.0712 45.1311 15.5355C45.5954 15.9998 46.1466 16.3681 46.7532 16.6194C47.3599 16.8707 48.0101 17 48.6667 17C49.3233 17 49.9735 16.8707 50.5801 16.6194C51.1867 16.3681 51.7379 15.9998 52.2022 15.5355C52.6665 15.0712 53.0348 14.52 53.2861 13.9134C53.5373 13.3068 53.6667 12.6566 53.6667 12C53.6667 10.6739 53.1399 9.40215 52.2022 8.46447C51.2645 7.52678 49.9927 7 48.6667 7C47.3406 7 46.0688 7.52678 45.1311 8.46447C44.1935 9.40215 43.6667 10.6739 43.6667 12ZM57 25.3333C56.5039 23.4789 55.4278 21.8317 53.9289 20.6323C52.4301 19.4328 50.587 18.7441 48.6689 18.6667C46.7504 18.7437 44.9068 19.4322 43.4075 20.6316C41.9082 21.831 40.8318 23.4785 40.3356 25.3333H57ZM43.6667 43.6667C43.6667 44.9922 44.1932 46.2634 45.1305 47.2006C46.0677 48.1379 47.3389 48.6644 48.6644 48.6644C49.9899 48.6644 51.2611 48.1379 52.1984 47.2006C53.1357 46.2634 53.6622 44.9922 53.6622 43.6667C53.6622 42.3412 53.1357 41.07 52.1984 40.1327C51.2611 39.1954 49.9899 38.6689 48.6644 38.6689C47.3389 38.6689 46.0677 39.1954 45.1305 40.1327C44.1932 41.07 43.6667 42.3412 43.6667 43.6667ZM57 57C56.5038 55.1452 55.4273 53.4977 53.928 52.2983C52.4287 51.0988 50.5852 50.4103 48.6667 50.3333C46.7482 50.4103 44.9046 51.0988 43.4053 52.2983C41.906 53.4977 40.8296 55.1452 40.3333 57H57ZM10.3333 25.3333C10.3333 27.1014 11.0357 28.7971 12.286 30.0474C13.5362 31.2976 15.2319 32 17 32C18.7681 32 20.4638 31.2976 21.714 30.0474C22.9643 28.7971 23.6667 27.1014 23.6667 25.3333C23.6667 23.5652 22.9643 21.8695 21.714 20.6193C20.4638 19.369 18.7681 18.6667 17 18.6667C15.2319 18.6667 13.5362 19.369 12.286 20.6193C11.0357 21.8695 10.3333 23.5652 10.3333 25.3333ZM7 45.3333C7 42.6812 8.05357 40.1376 9.92893 38.2623C11.8043 36.3869 14.3478 35.3333 17 35.3333C19.6522 35.3333 22.1957 36.3869 24.0711 38.2623C25.9464 40.1376 27 42.6812 27 45.3333H7Z" stroke="#4770FF" stroke-width="2" stroke-linecap="round" stroke-linejoin="round"/>
</svg>
